<mxfile host="app.diagrams.net" agent="Mozilla/5.0 (Windows NT 10.0; Win64; x64) AppleWebKit/537.36 (KHTML, like Gecko) Chrome/133.0.0.0 Safari/537.36 OPR/118.0.0.0" version="27.0.5">
  <diagram name="PÃ¡gina-1" id="ZhgFpiuUc04yXI0_oeS_">
    <mxGraphModel dx="1041" dy="542" grid="1" gridSize="10" guides="1" tooltips="1" connect="1" arrows="1" fold="1" page="1" pageScale="1" pageWidth="827" pageHeight="1169" math="0" shadow="0">
      <root>
        <mxCell id="0" />
        <mxCell id="1" parent="0" />
        <mxCell id="dW1ti2LC9JmZbImDwJrO-5" value="" style="shape=mxgraph.networks2.icon;aspect=fixed;fillColor=#EDEDED;strokeColor=#000000;gradientColor=#5B6163;network2IconShadow=1;network2bgFillColor=none;network2Icon=mxgraph.networks2.internet;network2IconXOffset=0.0012;network2IconYOffset=0.0035;network2IconW=0.9677;network2IconH=0.7722;" vertex="1" parent="1">
          <mxGeometry x="230" y="220" width="48.385" height="38.61" as="geometry" />
        </mxCell>
        <mxCell id="dW1ti2LC9JmZbImDwJrO-6" value="" style="fillColorStyles=neutralFill;neutralFill=#9DA6A8;shape=mxgraph.networks2.icon;aspect=fixed;fillColor=#EDEDED;strokeColor=#000000;gradientColor=#5B6163;network2IconShadow=1;network2bgFillColor=none;network2Icon=mxgraph.networks2.server;network2IconW=1.0001;network2IconH=0.5812;" vertex="1" parent="1">
          <mxGeometry x="430" y="227.77" width="50.005" height="29.060000000000002" as="geometry" />
        </mxCell>
        <mxCell id="dW1ti2LC9JmZbImDwJrO-7" style="edgeStyle=orthogonalEdgeStyle;rounded=0;orthogonalLoop=1;jettySize=auto;html=1;entryX=0.112;entryY=0.4;entryDx=0;entryDy=0;entryPerimeter=0;" edge="1" parent="1" source="dW1ti2LC9JmZbImDwJrO-5" target="dW1ti2LC9JmZbImDwJrO-6">
          <mxGeometry relative="1" as="geometry" />
        </mxCell>
      </root>
    </mxGraphModel>
  </diagram>
</mxfile>
